<?xml version="1.0" encoding="utf-8"?>
<!-- Generator: Adobe Illustrator 18.0.0, SVG Export Plug-In . SVG Version: 6.00 Build 0)  -->
<!DOCTYPE svg PUBLIC "-//W3C//DTD SVG 1.1//EN" "http://www.w3.org/Graphics/SVG/1.1/DTD/svg11.dtd">
<svg version="1.1" id="Layer_1" xmlns="http://www.w3.org/2000/svg" xmlns:xlink="http://www.w3.org/1999/xlink" x="0px" y="0px"
	 width="869px" height="290px" viewBox="66 19 869 290" enable-background="new 66 19 869 290" xml:space="preserve">
<rect x="66" y="117" fill="#1C9DF4" width="5" height="192"/>
<rect x="72" y="139" width="5" height="170"/>
<rect x="78" y="99" width="5" height="210"/>
<rect x="84" y="74" width="5" height="235"/>
<rect x="90" y="145" width="5" height="164"/>
<rect x="96" y="199" width="5" height="110"/>
<rect x="102" y="117" width="5" height="192"/>
<rect x="108" y="121" width="5" height="188"/>
<rect x="114" y="177" width="5" height="132"/>
<rect x="120" y="90" width="5" height="219"/>
<rect x="126" y="90" width="5" height="219"/>
<rect x="132" y="103" width="5" height="206"/>
<rect x="138" y="108" width="5" height="201"/>
<rect x="144" y="140" width="5" height="169"/>
<rect x="150" y="44" width="5" height="265"/>
<rect x="156" y="37" width="5" height="272"/>
<rect x="162" y="78" width="5" height="231"/>
<rect x="168" y="45" width="5" height="264"/>
<rect x="174" y="79" width="5" height="230"/>
<rect x="180" y="121" width="5" height="188"/>
<rect x="186" y="176" width="5" height="133"/>
<rect x="192" y="117" width="5" height="192"/>
<rect x="198" y="173" width="5" height="136"/>
<rect x="204" y="173" width="5" height="136"/>
<rect x="210" y="117" width="5" height="192"/>
<rect x="216" y="173" width="5" height="136"/>
<rect x="222" y="173" width="5" height="136"/>
<rect x="228" y="173" width="5" height="136"/>
<rect x="234" y="173" width="5" height="136"/>
<rect x="240" y="144" width="5" height="165"/>
<rect x="246" y="121" width="5" height="188"/>
<rect x="252" y="71" width="5" height="238"/>
<rect x="258" y="117" width="5" height="192"/>
<rect x="264" y="89" width="5" height="220"/>
<rect x="270" y="173" width="5" height="136"/>
<rect x="276" y="87" width="5" height="222"/>
<rect x="282" y="196" width="5" height="113"/>
<rect x="288" y="117" width="5" height="192"/>
<rect x="294" y="109" width="5" height="200"/>
<rect x="300" y="196" width="5" height="113"/>
<rect x="306" y="141" width="5" height="168"/>
<rect x="312" y="87" width="5" height="222"/>
<rect x="318" y="67" width="5" height="242"/>
<rect x="324" y="113" width="5" height="196"/>
<rect x="330" y="90" width="5" height="219"/>
<rect x="336" y="145" width="5" height="164"/>
<rect x="342" y="89" width="5" height="220"/>
<rect x="348" y="177" width="5" height="132"/>
<rect x="354" y="67" width="5" height="242"/>
<rect x="360" y="85" width="5" height="224"/>
<rect x="366" y="27" width="5" height="282"/>
<rect x="372" y="76" width="5" height="233"/>
<rect x="378" y="173" width="5" height="136"/>
<rect x="384" y="173" width="5" height="136"/>
<rect x="390" y="117" width="5" height="192"/>
<rect x="396" y="90" width="5" height="219"/>
<rect x="402" y="103" width="5" height="206"/>
<rect x="408" y="87" width="5" height="222"/>
<rect x="414" y="87" width="5" height="222"/>
<rect x="420" y="158" width="5" height="151"/>
<rect x="426" y="103" width="5" height="206"/>
<rect x="432" y="103" width="5" height="206"/>
<rect x="438" y="121" width="5" height="188"/>
<rect x="444" y="87" width="5" height="222"/>
<rect x="450" y="86" width="5" height="223"/>
<rect x="456" y="87" width="5" height="222"/>
<rect x="462" y="71" width="5" height="238"/>
<rect x="468" y="57" width="5" height="252"/>
<rect x="474" y="120" width="5" height="189"/>
<rect x="480" y="173" width="5" height="136"/>
<rect x="486" y="87" width="5" height="222"/>
<rect x="492" y="89" width="5" height="220"/>
<rect x="498" y="173" width="5" height="136"/>
<rect x="504" y="173" width="5" height="136"/>
<rect x="510" y="173" width="5" height="136"/>
<rect x="516" y="91" width="5" height="218"/>
<rect x="522" y="121" width="5" height="188"/>
<rect x="528" y="67" width="5" height="242"/>
<rect x="534" y="87" width="5" height="222"/>
<rect x="540" y="47" width="5" height="262"/>
<rect x="546" y="79" width="5" height="230"/>
<rect x="552" y="117" width="5" height="192"/>
<rect x="558" y="91" width="5" height="218"/>
<rect x="564" y="173" width="5" height="136"/>
<rect x="570" y="87" width="5" height="222"/>
<rect x="576" y="91" width="5" height="218"/>
<rect x="582" y="91" width="5" height="218"/>
<rect x="588" y="90" width="5" height="219"/>
<rect x="594" y="145" width="5" height="164"/>
<rect x="600" y="67" width="5" height="242"/>
<rect x="606" y="76" width="5" height="233"/>
<rect x="612" y="90" width="5" height="219"/>
<rect x="618" y="103" width="5" height="206"/>
<rect x="624" y="85" width="5" height="224"/>
<rect x="630" y="47" width="5" height="262"/>
<rect x="636" y="113" width="5" height="196"/>
<rect x="642" y="70" width="5" height="239"/>
<rect x="648" y="120" width="5" height="189"/>
<rect x="654" y="87" width="5" height="222"/>
<rect x="660" y="142" width="5" height="167"/>
<rect x="666" y="90" width="5" height="219"/>
<rect x="672" y="67" width="5" height="242"/>
<rect x="678" y="55" width="5" height="254"/>
<rect x="684" y="44" width="5" height="265"/>
<rect x="690" y="117" width="5" height="192"/>
<rect x="696" y="117" width="5" height="192"/>
<rect x="702" y="54" width="5" height="255"/>
<rect x="708" y="87" width="5" height="222"/>
<rect x="714" y="117" width="5" height="192"/>
<rect x="720" y="173" width="5" height="136"/>
<rect x="726" y="173" width="5" height="136"/>
<rect x="732" y="196" width="5" height="113"/>
<rect x="738" y="87" width="5" height="222"/>
<rect x="744" y="173" width="5" height="136"/>
<rect x="750" y="117" width="5" height="192"/>
<rect x="756" y="173" width="5" height="136"/>
<rect x="762" y="173" width="5" height="136"/>
<rect x="768" y="158" width="5" height="151"/>
<rect x="774" y="117" width="5" height="192"/>
<rect x="780" y="158" width="5" height="151"/>
<rect x="786" y="67" width="5" height="242"/>
<rect x="792" y="87" width="5" height="222"/>
<rect x="798" y="67" width="5" height="242"/>
<rect x="804" y="121" width="5" height="188"/>
<rect x="810" y="90" width="5" height="219"/>
<rect x="816" y="66" width="5" height="243"/>
<rect x="822" y="85" width="5" height="224"/>
<rect x="828" y="87" width="5" height="222"/>
<rect x="834" y="64" width="5" height="245"/>
<rect x="840" y="99" width="5" height="210"/>
<rect x="846" y="99" width="5" height="210"/>
<rect x="852" y="73" width="5" height="236"/>
<rect x="858" y="92" width="5" height="217"/>
<rect x="864" y="99" width="5" height="210"/>
<rect x="870" y="37" width="5" height="272"/>
<rect x="876" y="54" width="5" height="255"/>
<rect x="882" y="54" width="5" height="255"/>
<rect x="888" y="87" width="5" height="222"/>
<rect x="894" y="54" width="5" height="255"/>
<rect x="900" y="37" width="5" height="272"/>
<rect x="906" y="44" width="5" height="265"/>
<rect x="912" y="44" width="5" height="265"/>
<rect x="918" y="19" width="5" height="290"/>
<rect x="924" y="72" width="5" height="237"/>
<rect x="930" y="87" width="5" height="222"/>
</svg>
